<?xml version="1.0" encoding="UTF-8"?>
<svg version="1.1" xmlns="http://www.w3.org/2000/svg" width="502" height="93">
<path d="M0 0 C3.18656903 0.92967081 4.22190469 2.88583097 6.03515625 5.59375 C6.54931641 8.52880859 6.54931641 8.52880859 6.57421875 11.7421875 C6.59742187 12.91265625 6.620625 14.083125 6.64453125 15.2890625 C6.6496875 16.50335938 6.65484375 17.71765625 6.66015625 18.96875 C6.64248522 29.47253454 6.64248522 29.47253454 9.03515625 39.59375 C9.36515625 40.58375 9.69515625 41.57375 10.03515625 42.59375 C12.03035261 43.58315061 12.03035261 43.58315061 14.41015625 44.21875 C15.20164062 44.45851562 15.993125 44.69828125 16.80859375 44.9453125 C17.54335937 45.15929688 18.278125 45.37328125 19.03515625 45.59375 C20.52015625 46.08875 20.52015625 46.08875 22.03515625 46.59375 C24.22619188 46.02552845 24.22619188 46.02552845 26.47265625 44.96875 C27.23449219 44.64648438 27.99632812 44.32421875 28.78125 43.9921875 C31.66072269 42.20561693 33.14076447 40.40882644 35.03515625 37.59375 C35.63880243 34.51319669 35.63880243 34.51319669 35.57421875 31.19140625 C35.59742188 29.97130859 35.620625 28.75121094 35.64453125 27.49414062 C35.6496875 26.22763672 35.65484375 24.96113281 35.66015625 23.65625 C35.68577353 21.1470378 35.71935066 18.63789151 35.76171875 16.12890625 C35.76768066 15.019104 35.77364258 13.90930176 35.77978516 12.76586914 C36.10593129 8.71461037 37.06255184 5.21475736 39.16015625 1.71875 C41.67661648 0.20887386 44.11096266 0.1335971 47 0 C50.24245351 0.94597492 51.2249427 2.79792712 53.03515625 5.59375 C53.4971257 8.38547271 53.72079155 10.80142567 53.76953125 13.6015625 C53.79762878 14.4166629 53.82572632 15.23176331 53.85467529 16.07156372 C53.94117232 18.91228925 53.99146066 21.75204962 54.03515625 24.59375 C54.06403931 26.21476624 54.06403931 26.21476624 54.09350586 27.86853027 C54.21362092 35.13858449 54.26403709 42.40723196 54.27539062 49.67822266 C54.28526497 53.51094961 54.31647705 57.34317554 54.34765625 61.17578125 C54.35417305 63.62499687 54.35942868 66.07421624 54.36328125 68.5234375 C54.37562805 69.66295868 54.38797485 70.80247986 54.4006958 71.97653198 C54.3976947 73.0359903 54.3946936 74.09544861 54.39160156 75.18701172 C54.39707001 76.57664627 54.39707001 76.57664627 54.40264893 77.99435425 C53.86463079 81.7999323 52.31364565 84.58922261 49.28515625 86.96875 C45.89921698 87.90928869 43.41314617 87.45360198 40.03515625 86.59375 C36.72147233 83.62286097 36.21787227 79.76804185 35.03515625 75.59375 C33.44255035 71.17345607 32.130485 68.29289601 28.09765625 65.71875 C24.6934439 64.54740811 21.21970004 64.18394125 17.66015625 63.71875 C8.18545806 62.38229601 0.93042695 58.19014358 -4.96484375 50.59375 C-10.80903005 41.05531122 -11.14628815 32.49793792 -11.15234375 21.53125 C-11.16458984 20.36013672 -11.17683594 19.18902344 -11.18945312 17.98242188 C-11.19138672 16.85255859 -11.19332031 15.72269531 -11.1953125 14.55859375 C-11.20147583 13.02126587 -11.20147583 13.02126587 -11.20776367 11.45288086 C-10.89310842 7.74943602 -9.78971531 4.92270974 -7.83984375 1.78125 C-5.32967212 0.19147463 -2.92083122 0.13506734 0 0 Z " fill="#080604" transform="translate(84.96484375,1.40625)"/>
<path d="M0 0 C6.57353304 6.57353304 10.50838905 14.05031883 10.625 23.4375 C10.41866477 33.51353699 7.46708487 41.01910755 0.46875 48.3046875 C-7.50303912 55.29403782 -15.15882196 56.53138035 -25.5 56.484375 C-29.78663448 56.17524271 -32.8807895 55.07080494 -36.75 53.25 C-36.70359375 54.20261719 -36.6571875 55.15523437 -36.609375 56.13671875 C-36.55523437 58.01810547 -36.55523437 58.01810547 -36.5 59.9375 C-36.45359375 61.17886719 -36.4071875 62.42023438 -36.359375 63.69921875 C-36.81560144 67.84631712 -37.71775164 69.42979698 -40.75 72.25 C-43.49597514 73.11348046 -45.95458841 72.88140713 -48.75 72.25 C-51.71858157 70.04259319 -52.57865791 68.76402627 -53.75 65.25 C-53.85965109 62.28370753 -53.91407022 59.34169255 -53.91796875 56.375 C-53.92129715 55.49529541 -53.92462555 54.61559082 -53.92805481 53.70922852 C-53.93312042 51.84310427 -53.93546325 49.97697096 -53.93530273 48.11083984 C-53.93747037 45.28857922 -53.95557726 42.46672172 -53.97460938 39.64453125 C-54.05984015 13.29082417 -54.05984015 13.29082417 -44.25 2.5 C-30.02174942 -10.30542552 -15.86284057 -10.09453491 0 0 Z M-34.3125 15.25 C-36.6528251 20.13415672 -36.45457481 24.94412029 -35.75 30.25 C-33.96525364 34.16271318 -32.52124813 35.72414901 -29 38.125 C-23.75663488 39.940011 -19.71832239 39.96919472 -14.5 38.0625 C-10.9322189 35.71100791 -8.65778921 33.06557843 -6.75 29.25 C-6.15893513 23.56668392 -6.47756584 19.10222997 -9.75 14.25 C-12.94686518 10.87045681 -15.87198489 9.45904666 -20.5625 9.0859375 C-25.88236594 9.48492745 -30.1845487 12.02818435 -34.3125 15.25 Z " fill="#FAD40E" transform="translate(56.75,8.75)"/>
<path d="M0 0 C6.72109686 6.40356473 10.30064489 13.15239264 14.046875 21.640625 C14.55025391 22.75695312 15.05363281 23.87328125 15.57226562 25.0234375 C16.56936771 27.23692673 17.55942426 29.45360484 18.54199219 31.67358398 C19.49721722 33.80408503 20.47684233 35.92382661 21.48144531 38.03149414 C21.94260742 39.00207764 22.40376953 39.97266113 22.87890625 40.97265625 C23.29374268 41.82835205 23.7085791 42.68404785 24.13598633 43.56567383 C24.984375 45.890625 24.984375 45.890625 24.609375 49.828125 C22.76314077 53.30756643 21.44958688 55.00050943 17.984375 56.890625 C14.984375 57.015625 14.984375 57.015625 11.984375 55.890625 C8.95276046 52.79011013 6.83883456 49.77656071 4.984375 45.890625 C4.365625 46.47070312 4.365625 46.47070312 3.734375 47.0625 C-4.71030777 54.67779428 -12.54015174 57.31316508 -23.890625 57.16015625 C-33.06891243 56.36852896 -39.98222715 51.66183482 -46.015625 44.890625 C-52.11182155 36.03004338 -53.08874482 27.47596223 -52.015625 16.890625 C-49.19637704 7.81909651 -44.0080775 1.15741349 -35.6796875 -3.3828125 C-23.35909054 -9.15425493 -10.90179386 -8.39341652 0 0 Z M-33.453125 16.515625 C-35.57418186 21.09710783 -35.80840591 24.92360992 -35.015625 29.890625 C-32.6860647 34.72894256 -29.81438579 37.4912446 -25.015625 39.890625 C-19.69298528 40.83805487 -15.54228258 39.90839672 -11.015625 36.890625 C-7.91434795 34.12644328 -6.30767838 32.58508563 -5.6015625 28.48828125 C-5.42967569 23.29261187 -5.92381139 19.21916405 -9.015625 14.890625 C-12.97314944 11.40423442 -16.60368152 10.08730376 -21.7734375 9.73046875 C-26.97072289 10.10170342 -30.02032832 12.81876703 -33.453125 16.515625 Z " fill="#FCD60A" transform="translate(475.015625,8.109375)"/>
<path d="M0 0 C6.5281501 5.28150132 11.0658618 13.68658473 11.97265625 21.984375 C12.46838803 31.79732213 9.60488128 40.10183242 3.5 47.8125 C-1.5299431 53.1188136 -9.02544998 57.03886883 -16.3515625 57.61328125 C-23.99720882 57.77152447 -29.75412397 57.434343 -36.3125 53.375 C-37.35857422 52.75625 -37.35857422 52.75625 -38.42578125 52.125 C-45.09486341 47.70406418 -48.30554011 41.57137067 -51.6875 34.5 C-53.84190411 23.72797944 -51.93243896 14.84027641 -46.125 5.625 C-41.42441131 -0.53087931 -33.9742283 -4.58906038 -26.5 -6.25 C-16.54208633 -7.42151926 -8.43595685 -5.67773769 0 0 Z M-30.3125 14.375 C-31.4571875 15.179375 -31.4571875 15.179375 -32.625 16 C-35.33444782 19.81329692 -35.48965924 23.77594609 -35.3125 28.375 C-34.22761713 33.45378794 -31.64372612 36.55970302 -27.3125 39.375 C-22.95287544 40.82820819 -18.75357823 41.19197376 -14.375 39.7265625 C-9.73513876 37.38663248 -7.05745711 34.26914007 -5.3125 29.375 C-4.57979654 24.33766374 -5.50472443 20.56737427 -7.91796875 16.17578125 C-11.24835085 11.8752038 -15.72597223 10.59383142 -20.9375 9.875 C-25.03289685 10.48172546 -27.09610903 11.80188722 -30.3125 14.375 Z " fill="#FDD70C" transform="translate(336.3125,7.625)"/>
<path d="M0 0 C5.93786605 5.23260226 10.26605165 13.02076611 11.3203125 20.8984375 C11.52124751 25.36924151 10.886582 28.33917276 8.0390625 31.796875 C4.98359075 33.6916277 2.64153606 34.05251751 -0.92553711 34.0715332 C-2.40243263 34.08583122 -2.40243263 34.08583122 -3.90916443 34.10041809 C-4.96652298 34.09950668 -6.02388153 34.09859528 -7.11328125 34.09765625 C-8.20556534 34.10194138 -9.29784943 34.1062265 -10.42323303 34.11064148 C-12.73226224 34.11638213 -15.04130953 34.116887 -17.3503418 34.11254883 C-20.88166175 34.10939001 -24.41214306 34.13284828 -27.94335938 34.15820312 C-30.18749894 34.16047625 -32.43164076 34.16117955 -34.67578125 34.16015625 C-35.73111557 34.169366 -36.78644989 34.17857574 -37.87376404 34.18806458 C-47.02948115 34.13032822 -47.02948115 34.13032822 -50.9609375 30.796875 C-53.31523273 27.90684245 -53.99793434 26.52922272 -53.80859375 22.78125 C-51.07947955 11.53892881 -46.4802472 3.58584006 -36.9609375 -3.203125 C-24.76657385 -10.05615581 -11.08065957 -7.90916337 0 0 Z M-30.9609375 12.796875 C-31.6209375 13.786875 -32.2809375 14.776875 -32.9609375 15.796875 C-30.01961859 16.77731464 -28.13592085 16.91308702 -25.07421875 16.89453125 C-24.13642578 16.89130859 -23.19863281 16.88808594 -22.23242188 16.88476562 C-21.25595703 16.87638672 -20.27949219 16.86800781 -19.2734375 16.859375 C-18.28537109 16.85486328 -17.29730469 16.85035156 -16.27929688 16.84570312 C-13.83978276 16.83391803 -11.40039061 16.81746511 -8.9609375 16.796875 C-10.37091002 13.45164609 -10.82026409 12.87262222 -14.2109375 11.046875 C-20.79540559 8.8520523 -24.80107965 9.59848727 -30.9609375 12.796875 Z " fill="#FCD60A" transform="translate(199.9609375,8.203125)"/>
<path d="M0 0 C6.69374535 5.58927737 11.45322965 12.59770763 13.25 21.21875 C13.5411297 25.03982735 13.13619971 28.82998419 11.40625 32.26953125 C6.6303104 36.37690202 1.11037956 35.70233265 -4.84375 35.66796875 C-5.93461914 35.67083893 -7.02548828 35.67370911 -8.14941406 35.67666626 C-10.45247925 35.67870492 -12.75556183 35.67318898 -15.05859375 35.66064453 C-18.58112352 35.6445888 -22.10250586 35.66050073 -25.625 35.6796875 C-27.86458586 35.67770503 -30.10417101 35.67386129 -32.34375 35.66796875 C-33.39594727 35.67404144 -34.44814453 35.68011414 -35.53222656 35.68637085 C-42.06564964 35.62361631 -45.84136732 35.02191393 -50.59375 30.26953125 C-52.7990087 22.47761718 -50.13293956 16.32143264 -46.59375 9.26953125 C-41.81003777 1.46586276 -33.77523926 -3.23303265 -24.94921875 -5.37109375 C-15.99216248 -6.73767613 -7.6113009 -5.07802153 0 0 Z M-28.59375 14.26953125 C-29.25375 15.58953125 -29.91375 16.90953125 -30.59375 18.26953125 C-23.00375 17.93953125 -15.41375 17.60953125 -7.59375 17.26953125 C-12.83868852 11.88816007 -12.83868852 11.88816007 -19.30859375 11.1328125 C-23.05918144 11.35720664 -25.34780201 12.34845999 -28.59375 14.26953125 Z " fill="#010001" transform="translate(404.59375,6.73046875)"/>
<path d="M0 0 C5.28744704 4.19470798 7.95781797 9.92727255 11.0625 15.8125 C11.57876953 16.77220703 12.09503906 17.73191406 12.62695312 18.72070312 C15.51079585 24.10265165 18.29798221 29.52468816 21 35 C23.44006548 31.94277085 25.23103534 28.80330752 26.99609375 25.31640625 C27.83430664 23.67768555 27.83430664 23.67768555 28.68945312 22.00585938 C29.85244085 19.71496847 31.01390597 17.42330396 32.17382812 15.13085938 C33.01397461 13.49020508 33.01397461 13.49020508 33.87109375 11.81640625 C34.37568115 10.82068604 34.88026855 9.82496582 35.40014648 8.79907227 C39.4840171 1.6540125 39.4840171 1.6540125 42.96484375 0.15234375 C46.67738433 -0.25199235 48.52525729 -0.24242181 51.9375 1.5 C54.62922377 4.76269548 54.79877471 6.79441863 55 11 C53.8034668 14.35473633 53.8034668 14.35473633 51.94921875 17.83203125 C51.61946548 18.46221161 51.28971222 19.09239197 50.94996643 19.7416687 C49.88007491 21.77518925 48.78475786 23.79363524 47.6875 25.8125 C46.94559418 27.20672278 46.20503877 28.60166497 45.46582031 29.99731445 C43.65754434 33.39980884 41.82754013 36.78997622 39.98846436 40.17590332 C38.59682622 42.7440106 37.22350966 45.3218476 35.84765625 47.8984375 C34.98397101 49.49598311 34.1182999 51.09245785 33.25 52.6875 C32.6789856 53.74384644 32.6789856 53.74384644 32.09643555 54.8215332 C30.11302629 58.38199251 28.16462165 61.39726015 25 64 C21.18203518 64.66399388 19.42653391 64.23311224 16.01953125 62.37109375 C12.53712016 59.63652256 11.39450634 57.57358343 9.5625 53.5625 C8.89788815 52.15075853 8.22957682 50.74075572 7.55859375 49.33203125 C7.17300293 48.51686035 6.78741211 47.70168945 6.39013672 46.86181641 C3.75133342 41.42942227 0.94010059 36.0836974 -1.84695435 30.72628784 C-3.19015929 28.14414609 -4.53004663 25.56029173 -5.86940002 22.97615051 C-6.75321493 21.27117142 -7.63805058 19.56672156 -8.52294922 17.86230469 C-9.01037598 16.91774414 -9.49780273 15.97318359 -10 15 C-10.59772217 13.92733887 -10.59772217 13.92733887 -11.20751953 12.83300781 C-12.56262882 9.6986392 -11.80668346 7.22673385 -11 4 C-8.02937907 -0.4559314 -5.16352626 -0.81529362 0 0 Z " fill="#0A0906" transform="translate(225,2)"/>
<path d="M0 0 C2 1.125 2 1.125 3 3 C3.39726948 6.64163694 3.46411978 9.07176044 1.8125 12.375 C0 14 0 14 -2.5625 14.5 C-3.366875 14.665 -4.17125 14.83 -5 15 C-6.20003343 16.81601365 -6.20003343 16.81601365 -7 19 C-7.495 19.598125 -7.99 20.19625 -8.5 20.8125 C-12.46997289 26.60204379 -12.23246025 32.95709123 -12.0546875 39.6953125 C-12.02941121 41.5637949 -12.00468811 43.43228485 -11.98046875 45.30078125 C-11.93074366 48.22176096 -11.87460518 51.14234052 -11.80810547 54.06298828 C-11.74766804 56.89878873 -11.71216292 59.73407345 -11.6796875 62.5703125 C-11.65276825 63.44124542 -11.625849 64.31217834 -11.59811401 65.20950317 C-11.56383733 69.35820836 -11.65531959 71.44523417 -13.89501953 75.05004883 C-16.16153001 77.14963352 -16.96538982 77.66325854 -20 77.5625 C-23.0372083 77.37020003 -23.90470089 77.07086344 -26.4375 75.1875 C-29.57762091 70.79133073 -29.16116034 66.30604426 -29.16796875 61.125 C-29.17129715 60.24529541 -29.17462555 59.36559082 -29.17805481 58.45922852 C-29.18312042 56.59310427 -29.18546325 54.72697096 -29.18530273 52.86083984 C-29.18747037 50.03857922 -29.20557726 47.21672172 -29.22460938 44.39453125 C-29.30984015 18.04082417 -29.30984015 18.04082417 -19.5 7.25 C-8.9358998 -2.25769018 -8.9358998 -2.25769018 0 0 Z " fill="#050402" transform="translate(32,4)"/>
<path d="M0 0 C8.2214986 0.349851 13.84469299 4.5752166 19.3984375 10.4140625 C23.85126002 15.62357773 26.39919414 21.57748738 29.125 27.8125 C29.62386719 28.92431641 30.12273437 30.03613281 30.63671875 31.18164062 C31.62378507 33.38385517 32.60297291 35.58962017 33.57373047 37.79907227 C34.5203298 39.92349264 35.49323086 42.03639792 36.49267578 44.13647461 C36.95399902 45.10721924 37.41532227 46.07796387 37.890625 47.078125 C38.30602539 47.93438477 38.72142578 48.79064453 39.14941406 49.67285156 C40 52 40 52 39.625 55.9375 C37.77876577 59.41694143 36.46521188 61.10988443 33 63 C28.97419284 63.16774196 27.46159588 62.4053037 24.4375 59.75 C21.53686732 55.85801185 20.10295037 51.40180953 18.46875 46.87109375 C16.46773287 41.43010967 14.00285855 36.18503464 11.59057617 30.91699219 C9 25.20440769 9 25.20440769 9 23 C8.46375 22.7525 7.9275 22.505 7.375 22.25 C4.4176018 20.69347463 1.70275949 18.96564327 -1 17 C-1 16.34 -1 15.68 -1 15 C-1.99 14.67 -2.98 14.34 -4 14 C-5.52491998 10.95016004 -5.23562548 8.3576631 -5 5 C-3.625 3.0625 -3.625 3.0625 -2 2 C-1.34 2 -0.68 2 0 2 C0 1.34 0 0.68 0 0 Z " fill="#0B0906" transform="translate(460,2)"/>
<path d="M0 0 C7.63692622 6.37683339 11.47562788 13.61642066 13.40625 23.26953125 C12.41625 22.93953125 11.42625 22.60953125 10.40625 22.26953125 C10.40625 21.60953125 10.40625 20.94953125 10.40625 20.26953125 C6.9964834 19.13294238 4.18349572 19.12657372 0.59375 19.01953125 C-7.09712804 18.54673137 -7.09712804 18.54673137 -9.90625 15.76953125 C-13.13234827 12.76850961 -15.05330177 12.38981189 -19.34375 12.12890625 C-23.02851219 12.35920389 -25.38432239 13.43557262 -28.59375 15.26953125 C-29.25375 16.25953125 -29.91375 17.24953125 -30.59375 18.26953125 C-33.08008205 18.49609642 -35.42080578 18.58468885 -37.90625 18.58203125 C-43.05402993 18.65176283 -43.05402993 18.65176283 -47.6953125 20.66015625 C-49.20991743 22.4503462 -49.20991743 22.4503462 -50.59375 25.26953125 C-52.43549997 19.74428134 -48.99248473 14.31823977 -46.59375 9.26953125 C-42.13346811 1.93431965 -35.43741215 -1.64216035 -27.59375 -4.73046875 C-17.82737861 -7.09632534 -8.43774205 -5.62939718 0 0 Z " fill="#FCD60B" transform="translate(404.59375,6.73046875)"/>
<path d="M0 0 C1.18722656 -0.03738281 2.37445313 -0.07476563 3.59765625 -0.11328125 C13.18978982 -0.21060842 13.18978982 -0.21060842 16.25 2.7421875 C18.09411084 5.5165864 19 7.04225569 19 10.375 C17.32164451 14.17338348 15.82145249 15.85714687 12 17.375 C9.6544342 17.63569641 9.6544342 17.63569641 7.03540039 17.6496582 C5.55850487 17.66395622 5.55850487 17.66395622 4.05177307 17.67854309 C2.99441452 17.67763168 1.93705597 17.67672028 0.84765625 17.67578125 C-0.24462784 17.68006638 -1.33691193 17.6843515 -2.46229553 17.68876648 C-4.77132474 17.69450713 -7.08037203 17.695012 -9.3894043 17.69067383 C-12.92072425 17.68751501 -16.45120556 17.71097328 -19.98242188 17.73632812 C-22.22656144 17.73860125 -24.47070326 17.73930455 -26.71484375 17.73828125 C-28.29784523 17.75209587 -28.29784523 17.75209587 -29.91282654 17.76618958 C-39.11620876 17.70815264 -39.11620876 17.70815264 -43 14.375 C-46 10.13362069 -46 10.13362069 -46 7.375 C-45.34 7.375 -44.68 7.375 -44 7.375 C-43.690625 6.570625 -43.38125 5.76625 -43.0625 4.9375 C-42 2.375 -42 2.375 -41 1.375 C-37.76222208 1.30013808 -34.53477067 1.37889555 -31.296875 1.4375 C-27.80711839 1.44179773 -24.36789951 1.18715474 -20.890625 0.8984375 C-13.92453124 0.33448695 -6.98730065 0.08568596 0 0 Z " fill="#050404" transform="translate(192,24.625)"/>
<path d="M0 0 C3.31556628 0.96730533 4.28915846 2.66853802 6.03515625 5.59375 C6.49417866 8.56268342 6.73175621 11.18140981 6.78515625 14.15625 C6.81407959 14.97456299 6.84300293 15.79287598 6.87280273 16.63598633 C7.1633707 25.95094176 7.12352457 35.27580212 7.03515625 44.59375 C6.37515625 43.27375 5.71515625 41.95375 5.03515625 40.59375 C4.720625 41.26921875 4.40609375 41.9446875 4.08203125 42.640625 C-0.53942939 52.27330801 -0.53942939 52.27330801 -3.96484375 54.59375 C-6.88732203 54.13198628 -9.24413829 53.03749889 -11.83984375 51.65625 C-15.13821177 49.95765224 -18.4022257 48.66253541 -21.96484375 47.59375 C-21.96484375 46.93375 -21.96484375 46.27375 -21.96484375 45.59375 C-20.60359375 45.0059375 -20.60359375 45.0059375 -19.21484375 44.40625 C-15.68372386 42.4369716 -14.17040305 40.95150665 -11.96484375 37.59375 C-11.36119757 34.51319669 -11.36119757 34.51319669 -11.42578125 31.19140625 C-11.40257813 29.97130859 -11.379375 28.75121094 -11.35546875 27.49414062 C-11.3503125 26.22763672 -11.34515625 24.96113281 -11.33984375 23.65625 C-11.31422647 21.1470378 -11.28064934 18.63789151 -11.23828125 16.12890625 C-11.23231934 15.019104 -11.22635742 13.90930176 -11.22021484 12.76586914 C-10.89406871 8.71461037 -9.93744816 5.21475736 -7.83984375 1.71875 C-5.32338352 0.20887386 -2.88903734 0.1335971 0 0 Z " fill="#FAD615" transform="translate(131.96484375,1.40625)"/>
<path d="M0 0 C3.18656903 0.92967081 4.22190469 2.88583097 6.03515625 5.59375 C6.54931641 8.52880859 6.54931641 8.52880859 6.57421875 11.7421875 C6.59742187 12.91265625 6.620625 14.083125 6.64453125 15.2890625 C6.6496875 16.50335938 6.65484375 17.71765625 6.66015625 18.96875 C6.64248522 29.47253454 6.64248522 29.47253454 9.03515625 39.59375 C9.36515625 40.58375 9.69515625 41.57375 10.03515625 42.59375 C12.13235497 43.61656518 12.13235497 43.61656518 14.59765625 44.28125 C15.42394531 44.53261719 16.25023438 44.78398438 17.1015625 45.04296875 C17.73964844 45.22472656 18.37773438 45.40648437 19.03515625 45.59375 C17.48691797 48.69022655 14.97618852 48.88290767 11.78515625 50.03125 C7.56322497 51.55477497 3.8122696 53.15850587 0.03515625 55.59375 C-10.03057027 44.97647682 -11.14441691 35.88676151 -11.15234375 21.53125 C-11.16458984 20.36013672 -11.17683594 19.18902344 -11.18945312 17.98242188 C-11.19138672 16.85255859 -11.19332031 15.72269531 -11.1953125 14.55859375 C-11.20147583 13.02126587 -11.20147583 13.02126587 -11.20776367 11.45288086 C-10.89310842 7.74943602 -9.78971531 4.92270974 -7.83984375 1.78125 C-5.32967212 0.19147463 -2.92083122 0.13506734 0 0 Z " fill="#FCD507" transform="translate(84.96484375,1.40625)"/>
<path d="M0 0 C5.28744704 4.19470798 7.95781797 9.92727255 11.0625 15.8125 C11.57876953 16.77220703 12.09503906 17.73191406 12.62695312 18.72070312 C15.51085754 24.10276679 18.29689351 29.52511688 21 35 C21.33 35.66 21.66 36.32 22 37 C20.93429433 39.2415541 19.81799139 41.39047609 18.625 43.5625 C15.672991 49.1443499 14.11055601 53.58775156 14 60 C11.50651193 57.50651193 10.26655495 54.69645096 8.75 51.5625 C4.82056739 43.56636203 0.7360632 35.6536916 -3.375 27.75 C-3.68731567 27.14946808 -3.99963135 26.54893616 -4.32141113 25.9302063 C-4.62816772 25.34036957 -4.93492432 24.75053284 -5.25097656 24.14282227 C-6.12834473 22.45564087 -6.12834473 22.45564087 -7.0234375 20.734375 C-7.81113525 19.22182129 -7.81113525 19.22182129 -8.61474609 17.67871094 C-9.07187988 16.79473633 -9.52901367 15.91076172 -10 15 C-10.39396973 14.29391602 -10.78793945 13.58783203 -11.19384766 12.86035156 C-12.55905929 9.70986317 -11.81176208 7.24704831 -11 4 C-8.02937907 -0.4559314 -5.16352626 -0.81529362 0 0 Z " fill="#FCD60D" transform="translate(225,2)"/>
<path d="M0 0 C8.06223748 2.9521822 12.89400133 3.28681758 20.8125 -0.3125 C23.73118869 -0.7890206 25.8062222 -0.66323241 28.8125 -0.3125 C31.33106749 1.79984693 31.7525113 3.48610936 32.6875 6.625 C32.84899824 10.58170681 32.47216924 11.72386856 29.8125 14.6875 C21.15290029 19.93350324 13.21355989 22.06570323 3.1484375 20.19140625 C-2.41235203 18.70460905 -6.24814041 16.92231156 -10.1875 12.6875 C-11.8125 9.75 -11.8125 9.75 -12.1875 6.6875 C-9.37317387 1.05884773 -6.27839564 -2.59598508 0 0 Z " fill="#0E0C09" transform="translate(375.1875,44.3125)"/>
<path d="M0 0 C2.33333333 1 4.66666667 2 7 3 C11.06691572 3.42809639 13.28168831 3.36679746 16.9375 1.5 C21.10697386 -0.54219128 23.38303604 -0.59573729 28 0 C30.99993115 2.54994148 31.85480459 4.12882756 32.5 8 C31.8486937 11.90783778 30.9157461 13.29760117 28 16 C19.73692312 20.51815947 11.42304291 22.59924208 2.11328125 20.28125 C-3.44810352 18.39963551 -8.1327603 16.49435965 -12 12 C-12.6875 8.5 -12.6875 8.5 -12 5 C-8.53819983 0.06955734 -5.89423459 -0.81299787 0 0 Z " fill="#0E0C08" transform="translate(169,44)"/>
<path d="M0 0 C0.99 0.495 0.99 0.495 2 1 C3.15014372 4.45043117 4 7.35282355 4 11 C4.53467596 12.97505808 4.53467596 12.97505808 5.3125 15 C5.67794922 16.0209375 5.67794922 16.0209375 6.05078125 17.0625 C7.08152855 19.16641219 8.34606985 20.36923413 10 22 C10 22.66 10 23.32 10 24 C10.66 24 11.32 24 12 24 C12 24.66 12 25.32 12 26 C12.9590625 26.2165625 12.9590625 26.2165625 13.9375 26.4375 C16 27 16 27 17 28 C17.18108303 30.43423084 17.27808118 32.81314766 17.3125 35.25 C17.34150391 35.91902344 17.37050781 36.58804688 17.40039062 37.27734375 C17.44586043 40.83797915 17.07407973 42.87653378 15.23046875 45.94921875 C12.88467278 48.10603641 12.11552109 48.66594504 9 48.5625 C5.9627917 48.37020003 5.09529911 48.07086344 2.5625 46.1875 C0.34379424 43.08131194 -0.12496051 40.61216455 -0.11352539 36.89575195 C-0.11344986 36.07512772 -0.11337433 35.25450348 -0.11329651 34.40901184 C-0.10813522 33.52767075 -0.10297394 32.64632965 -0.09765625 31.73828125 C-0.0962413 30.83248825 -0.09482635 29.92669525 -0.09336853 28.99345398 C-0.08777001 26.09976909 -0.07521781 23.20616151 -0.0625 20.3125 C-0.05748481 18.35091258 -0.05292193 16.38932394 -0.04882812 14.42773438 C-0.03780107 9.61845979 -0.02053747 4.809243 0 0 Z " fill="#080704" transform="translate(3,33)"/>
<path d="M0 0 C0.77988281 0.00725098 1.55976563 0.01450195 2.36328125 0.02197266 C4.43168721 0.04906767 6.49542199 0.11062196 8.5625 0.1875 C9.69816406 0.22230469 10.83382812 0.25710937 12.00390625 0.29296875 C15.94184775 1.22226133 17.50353707 2.87256292 20 6 C20.5625 9.5625 20.5625 9.5625 20 13 C18.13291495 15.36497439 16.67938569 16.66030715 14 18 C12.39645548 18.09016377 10.78917778 18.11756075 9.18310547 18.11352539 C8.18221893 18.11344986 7.1813324 18.11337433 6.15011597 18.11329651 C5.06674957 18.10813522 3.98338318 18.10297394 2.8671875 18.09765625 C1.76021515 18.0962413 0.6532428 18.09482635 -0.48727417 18.09336853 C-4.03320993 18.08775772 -7.57908323 18.07520337 -11.125 18.0625 C-13.52473867 18.05748639 -15.92447833 18.05292325 -18.32421875 18.04882812 C-24.21616725 18.03778478 -30.10807916 18.0210361 -36 18 C-36.33 17.34 -36.66 16.68 -37 16 C-31.76100772 15.12733788 -26.74677147 14.86589823 -21.44140625 14.90234375 C-20.65225327 14.9037587 -19.86310028 14.90517365 -19.05003357 14.90663147 C-16.55414885 14.91218445 -14.05835715 14.92472792 -11.5625 14.9375 C-9.86002735 14.94252109 -8.15755327 14.94708293 -6.45507812 14.95117188 C-2.30335012 14.96213842 1.84830922 14.97937009 6 15 C5.34 14.01 4.68 13.02 4 12 C3.34 9.03 2.68 6.06 2 3 C-17.8 2.505 -17.8 2.505 -38 2 C-38 1.67 -38 1.34 -38 1 C-25.32119723 -0.01721054 -12.71435809 -0.20375574 0 0 Z " fill="#1E1A0E" transform="translate(397,24)"/>
<path d="M0 0 C4.39548491 -0.14536813 8.79035087 -0.23409948 13.1875 -0.3125 C14.43337891 -0.35439453 15.67925781 -0.39628906 16.96289062 -0.43945312 C27.26824178 -0.57759456 27.26824178 -0.57759456 30.30078125 2.36328125 C32.08923159 5.13846281 33 6.69538284 33 10 C31.32164451 13.79838348 29.82145249 15.48214687 26 17 C23.6544342 17.26069641 23.6544342 17.26069641 21.03540039 17.2746582 C19.55850487 17.28895622 19.55850487 17.28895622 18.05177307 17.30354309 C16.99441452 17.30263168 15.93705597 17.30172028 14.84765625 17.30078125 C13.75537216 17.30506638 12.66308807 17.3093515 11.53770447 17.31376648 C9.22867526 17.31950713 6.91962797 17.320012 4.6105957 17.31567383 C1.07927575 17.31251501 -2.45120556 17.33597328 -5.98242188 17.36132812 C-8.22656144 17.36360125 -10.47070326 17.36430455 -12.71484375 17.36328125 C-14.29784523 17.37709587 -14.29784523 17.37709587 -15.91282654 17.39118958 C-25.13678116 17.33302291 -25.13678116 17.33302291 -29 14 C-29.33 13.34 -29.66 12.68 -30 12 C-29.43267151 12.32531708 -28.86534302 12.65063416 -28.28082275 12.98580933 C-25.79587794 14.09076492 -24.20881981 14.24257942 -21.50683594 14.22705078 C-20.62622498 14.22689972 -19.74561401 14.22674866 -18.83831787 14.22659302 C-17.89651672 14.21627045 -16.95471558 14.20594788 -15.984375 14.1953125 C-14.52792572 14.19106766 -14.52792572 14.19106766 -13.04205322 14.18673706 C-9.94457615 14.17555292 -6.8473895 14.15045142 -3.75 14.125 C-1.64844168 14.11496792 0.45312118 14.10584247 2.5546875 14.09765625 C7.70323669 14.07561934 12.85156913 14.04110145 18 14 C17.67854004 13.22116455 17.35708008 12.4423291 17.02587891 11.63989258 C15.63809425 8.06870849 15.38676203 4.80315996 15 1 C10.05 1 5.1 1 0 1 C0 0.67 0 0.34 0 0 Z " fill="#0E0B04" transform="translate(178,25)"/>
<path d="M0 0 C0.84046875 0.01804687 1.6809375 0.03609375 2.546875 0.0546875 C4.61507395 0.10169202 6.68268441 0.17343276 8.75 0.25 C8.12609375 0.46398437 7.5021875 0.67796875 6.859375 0.8984375 C3.91414403 2.78556697 3.77912389 4.52476726 3 7.875 C2.75765625 8.87789062 2.5153125 9.88078125 2.265625 10.9140625 C2.09546875 11.68492188 1.9253125 12.45578125 1.75 13.25 C-8.22868453 15.79628502 -8.22868453 15.79628502 -11.9375 13.8125 C-13.718283 10.3357332 -13.80094611 8.10662275 -13.25 4.25 C-9.84735674 -0.90884623 -5.59106909 -0.22713718 0 0 Z " fill="#090805" transform="translate(367.25,25.75)"/>
<path d="M0 0 C0.56393967 0.32564438 1.12787933 0.65128876 1.70890808 0.98680115 C4.24889286 2.1100689 5.89501413 2.23677418 8.6574707 2.21118164 C9.57555008 2.20780289 10.49362946 2.20442413 11.43952942 2.20094299 C12.91772408 2.18075356 12.91772408 2.18075356 14.42578125 2.16015625 C15.95721016 2.1523539 15.95721016 2.1523539 17.51957703 2.14439392 C20.78402949 2.12658637 24.04816785 2.09543905 27.3125 2.0625 C30.56609053 2.03480679 33.81963329 2.01007353 37.07328796 1.99131775 C39.09677707 1.97914646 41.12024319 1.96162868 43.14363098 1.93800354 C48.21718472 1.90227991 53.00087513 2.11775064 58 3 C55.5015649 5.4984351 54.71233468 5.25636126 51.26245117 5.2746582 C50.27770309 5.28419022 49.29295502 5.29372223 48.27836609 5.30354309 C46.67684441 5.30217598 46.67684441 5.30217598 45.04296875 5.30078125 C43.94785477 5.30506638 42.85274078 5.3093515 41.72444153 5.31376648 C39.4034596 5.31951841 37.08245963 5.32000372 34.76147461 5.31567383 C31.21241337 5.31252212 27.66419195 5.3359344 24.11523438 5.36132812 C21.86198022 5.36360186 19.60872382 5.36430427 17.35546875 5.36328125 C15.76305611 5.37709587 15.76305611 5.37709587 14.13847351 5.39118958 C4.85407637 5.33302191 4.85407637 5.33302191 1 2 C0.67 1.34 0.34 0.68 0 0 Z " fill="#474315" transform="translate(148,37)"/>
<path d="M0 0 C0.88636139 -0.00095673 1.77272278 -0.00191345 2.6859436 -0.00289917 C4.55690583 -0.00357817 6.42787045 -0.00174346 8.29882812 0.00244141 C11.14718993 0.00778087 13.99539315 0.00249345 16.84375 -0.00390625 C18.66666701 -0.00324517 20.48958393 -0.00196339 22.3125 0 C23.58001602 -0.00303635 23.58001602 -0.00303635 24.87313843 -0.00613403 C29.6164115 0.01245819 34.11064172 0.34168408 38.7890625 1.1328125 C36.7890625 3.1328125 36.7890625 3.1328125 34.65036011 3.37332153 C33.7665567 3.36888031 32.8827533 3.36443909 31.97216797 3.35986328 C30.97128143 3.35971222 29.9703949 3.35956116 28.93917847 3.35940552 C27.31412888 3.34392166 27.31412888 3.34392166 25.65625 3.328125 C24.54927765 3.3252951 23.4423053 3.32246521 22.30178833 3.31954956 C18.75577113 3.30832769 15.21000375 3.28321941 11.6640625 3.2578125 C9.26432656 3.2477853 6.86458667 3.238659 4.46484375 3.23046875 C-1.42716901 3.20838182 -7.31903541 3.17488457 -13.2109375 3.1328125 C-13.5409375 2.4728125 -13.8709375 1.8128125 -14.2109375 1.1328125 C-9.47161411 -0.07817422 -4.85541475 -0.01157573 0 0 Z " fill="#3E3E16" transform="translate(374.2109375,38.8671875)"/>
<path d="M0 0 C0.33 0 0.66 0 1 0 C2.09314225 4.42545417 2.16129407 8.76224977 2.16796875 13.29296875 C2.17129715 14.08020828 2.17462555 14.86744781 2.17805481 15.67854309 C2.18309964 17.33508726 2.18546389 18.99164152 2.18530273 20.64819336 C2.18750169 23.18945763 2.20571669 25.7302961 2.22460938 28.27148438 C2.22754126 29.88281102 2.22952743 31.49413972 2.23046875 33.10546875 C2.23765427 33.86691696 2.24483978 34.62836517 2.25224304 35.41288757 C2.22884147 40.77115853 2.22884147 40.77115853 0 43 C-0.33 31.12 -0.66 19.24 -1 7 C-2.98 9.64 -4.96 12.28 -7 15 C-8.32 15.33 -9.64 15.66 -11 16 C-9.6696875 14.5459375 -9.6696875 14.5459375 -8.3125 13.0625 C-4.85505071 9.05481531 -2.40573888 4.69438427 0 0 Z " fill="#666133" transform="translate(137,41)"/>
<path d="M0 0 C1.65515625 0.11794922 1.65515625 0.11794922 3.34375 0.23828125 C6.36713739 0.6685901 8.73431755 1.42333545 11.5 2.6875 C11.5 3.0175 11.5 3.3475 11.5 3.6875 C8.53 3.6875 5.56 3.6875 2.5 3.6875 C2.5 4.3475 2.5 5.0075 2.5 5.6875 C1.51 5.6875 0.52 5.6875 -0.5 5.6875 C-0.45875 6.780625 -0.4175 7.87375 -0.375 9 C-0.5 12.6875 -0.5 12.6875 -2.5 15.6875 C-1.51 16.0175 -0.52 16.3475 0.5 16.6875 C-4.945 18.1725 -4.945 18.1725 -10.5 19.6875 C-10.5 19.0275 -10.5 18.3675 -10.5 17.6875 C-9.530625 17.23375 -8.56125 16.78 -7.5625 16.3125 C-4.42920418 15.02963779 -4.42920418 15.02963779 -3.5 12.6875 C-3.25 9.1875 -3.25 9.1875 -3.5 5.6875 C-5.96278801 3.22471199 -8.20676982 2.68978745 -11.5 1.6875 C-11.5 1.3575 -11.5 1.0275 -11.5 0.6875 C-7.52353462 -0.29919757 -4.07679322 -0.3190948 0 0 Z " fill="#FAD50A" transform="translate(37.5,1.3125)"/>
<path d="M0 0 C0 0.33 0 0.66 0 1 C-1.98 1.66 -3.96 2.32 -6 3 C-5.67 3.99 -5.34 4.98 -5 6 C-5.99 6 -6.98 6 -8 6 C-8 5.34 -8 4.68 -8 4 C-8.66 4 -9.32 4 -10 4 C-10 16.87 -10 29.74 -10 43 C-14.27380195 36.58929707 -13.18339183 28.37739129 -13.1875 20.9375 C-13.19974609 19.76638672 -13.21199219 18.59527344 -13.22460938 17.38867188 C-13.22654297 16.25880859 -13.22847656 15.12894531 -13.23046875 13.96484375 C-13.23663208 12.42751587 -13.23663208 12.42751587 -13.24291992 10.85913086 C-12.92826467 7.15568602 -11.82487156 4.32895974 -9.875 1.1875 C-6.75094171 -0.79107025 -3.63235593 -0.17864046 0 0 Z " fill="#FBE552" transform="translate(87,2)"/>
<path d="M0 0 C0.33 1.32 0.66 2.64 1 4 C0.34 4 -0.32 4 -1 4 C-1 5.32 -1 6.64 -1 8 C3.95 8 8.9 8 14 8 C14 7.34 14 6.68 14 6 C15.33333333 6.66666667 16.66666667 7.33333333 18 8 C19.52148326 8.08372659 21.04655778 8.10730027 22.5703125 8.09765625 C23.91416016 8.09282227 23.91416016 8.09282227 25.28515625 8.08789062 C26.22230469 8.07951172 27.15945312 8.07113281 28.125 8.0625 C29.54232422 8.05573242 29.54232422 8.05573242 30.98828125 8.04882812 C33.32558387 8.03702357 35.66276061 8.02055759 38 8 C38 8.33 38 8.66 38 9 C33.93818315 9.34200944 29.87546604 9.67194819 25.8125 10 C24.68134766 10.09539063 23.55019531 10.19078125 22.38476562 10.2890625 C15.43264019 10.843648 8.71452951 10.99778173 1.7487793 10.546875 C-1.24988397 10.75555913 -1.24988397 10.75555913 -3.36791992 13.515625 C-3.90650635 14.33546875 -4.44509277 15.1553125 -5 16 C-4.55643705 9.79011871 -3.08467498 5.39459439 0 0 Z " fill="#BEAC53" transform="translate(152,16)"/>
<path d="M0 0 C0.99 0.495 0.99 0.495 2 1 C3.15014372 4.45043117 4 7.35282355 4 11 C3.67 11.66 3.34 12.32 3 13 C2.84530633 15.17674783 2.74997894 17.3578348 2.68359375 19.5390625 C2.64169922 20.84101562 2.59980469 22.14296875 2.55664062 23.484375 C2.51682701 24.86458045 2.47711478 26.24478883 2.4375 27.625 C2.39430593 29.01303415 2.35069135 30.40105528 2.30664062 31.7890625 C2.20028 35.19260256 2.09825286 38.59621778 2 42 C1.34 41.67 0.68 41.34 0 41 C0 27.47 0 13.94 0 0 Z " fill="#716835" transform="translate(3,33)"/>
<path d="M0 0 C7.36259293 -0.22424141 13.87049629 0.09879901 21 2 C21 3.32 21 4.64 21 6 C24.96 6 28.92 6 33 6 C33.495 6.99 33.495 6.99 34 8 C21.40384487 8.77647532 21.40384487 8.77647532 18.05078125 6.921875 C17.60089844 6.47328125 17.15101563 6.0246875 16.6875 5.5625 C13.45977406 2.48490085 11.58267017 2.12967309 7.25 1.8515625 C3.64962056 2.08908753 1.17774763 3.31384819 -2 5 C-2.99 5.495 -2.99 5.495 -4 6 C-3.67 4.68 -3.34 3.36 -3 2 C-2.01 2 -1.02 2 0 2 C0 1.34 0 0.68 0 0 Z " fill="#F4D639" transform="translate(378,17)"/>
<path d="M0 0 C0 0.33 0 0.66 0 1 C-1.71896484 1.03867188 -1.71896484 1.03867188 -3.47265625 1.078125 C-5.0026403 1.13444343 -6.53258675 1.1917899 -8.0625 1.25 C-8.81466797 1.26417969 -9.56683594 1.27835937 -10.34179688 1.29296875 C-16.00275476 1.53803186 -19.21345825 3.01214623 -24 6 C-24.99 6 -25.98 6 -27 6 C-27.103125 6.639375 -27.20625 7.27875 -27.3125 7.9375 C-27.539375 8.618125 -27.76625 9.29875 -28 10 C-28.99 10.33 -29.98 10.66 -31 11 C-32.66710346 12.49985609 -32.66710346 12.49985609 -34 14 C-34 10.42259043 -33.48655634 10.03053015 -31.0625 7.5625 C-22.6845563 -0.47556769 -11.12296849 -2.78074212 0 0 Z " fill="#F8E151" transform="translate(188,2)"/>
<path d="M0 0 C-1.6029053 0.81498562 -3.20737278 1.62689927 -4.8125 2.4375 C-5.70582031 2.88996094 -6.59914063 3.34242187 -7.51953125 3.80859375 C-14.09769632 6.96818485 -22.4359767 7.23818929 -29.4765625 5.328125 C-31.375 4.5 -31.375 4.5 -34 3 C-32.0625 2.4375 -32.0625 2.4375 -30 2 C-29.67 2.33 -29.34 2.66 -29 3 C-26.19660365 3.12689057 -23.42882157 3.1852093 -20.625 3.1875 C-19.84382813 3.19974609 -19.06265625 3.21199219 -18.2578125 3.22460938 C-14.32364477 3.23471426 -12.34407551 3.22938367 -9 1 C-3.51428571 -1.17142857 -3.51428571 -1.17142857 0 0 Z " fill="#F6DD4D" transform="translate(336,59)"/>
<path d="M0 0 C3.83345144 3.83345144 4.19814654 8.40025586 4.4375 13.625 C4.34452594 20.37829747 2.28799665 26.13142415 -1 32 C-1.99 32.495 -1.99 32.495 -3 33 C-2.34 30.03 -1.68 27.06 -1 24 C-0.34 24 0.32 24 1 24 C1 19.38 1 14.76 1 10 C0.34 10 -0.32 10 -1 10 C-1 9.34 -1 8.68 -1 8 C-0.34 8 0.32 8 1 8 C0.67 5.36 0.34 2.72 0 0 Z " fill="#FAD936" transform="translate(344,19)"/>
<path d="M0 0 C0.99 0.33 1.98 0.66 3 1 C2.938125 2.093125 2.87625 3.18625 2.8125 4.3125 C2.62756763 7.91752611 2.62756763 7.91752611 4.5 9.8125 C4.995 10.204375 5.49 10.59625 6 11 C6 11.66 6 12.32 6 13 C4.824375 12.938125 3.64875 12.87625 2.4375 12.8125 C-2.03960301 12.78855827 -5.0241888 14.0120944 -9 16 C-9 15.01 -9 14.02 -9 13 C-8.01 13 -7.02 13 -6 13 C-6 12.34 -6 11.68 -6 11 C-4.35 10.67 -2.7 10.34 -1 10 C-0.67 6.7 -0.34 3.4 0 0 Z " fill="#E5CC32" transform="translate(453,6)"/>
<path d="M0 0 C0.99 1.485 0.99 1.485 2 3 C2.804375 4.010625 3.60875 5.02125 4.4375 6.0625 C5.51171875 7.8828125 5.51171875 7.8828125 6 10 C4.83461656 13.65047049 3.05024992 16.77539807 1 20 C-0.04449911 16.86650268 0.06576355 16.01031744 1 13 C1.66 13 2.32 13 3 13 C3 12.34 3 11.68 3 11 C2.01 11 1.02 11 0 11 C0 7.37 0 3.74 0 0 Z " fill="#E9CB22" transform="translate(241,29)"/>
<path d="M0 0 C2.68316595 2.68316595 2.27862963 4.10627579 2.34375 7.85546875 C2.37339844 9.03560547 2.40304688 10.21574219 2.43359375 11.43164062 C2.45550781 12.67107422 2.47742188 13.91050781 2.5 15.1875 C2.63135057 25.77294665 2.63135057 25.77294665 5 36 C5 36.99 5 37.98 5 39 C2 37 2 37 1.33227539 34.33544922 C0.97611991 30.76028668 0.7874837 27.22443665 0.68359375 23.6328125 C0.66281265 22.95322479 0.64203156 22.27363708 0.62062073 21.57345581 C0.5557637 19.42406334 0.49654059 17.2745593 0.4375 15.125 C0.39425388 13.6588431 0.35063775 12.19269706 0.30664062 10.7265625 C0.20014896 7.15115725 0.09870591 3.57562963 0 0 Z " fill="#F8DB3D" transform="translate(89,5)"/>
<path d="M0 0 C0.33 0 0.66 0 1 0 C1.33 5.61 1.66 11.22 2 17 C2.66 17 3.32 17 4 17 C4 18.65 4 20.3 4 22 C4.66 22 5.32 22 6 22 C7.06775224 23.96466413 8.06553465 25.96855359 9 28 C8.67 28.66 8.34 29.32 8 30 C7.03275368 28.6312552 6.0766356 27.25464396 5.125 25.875 C4.59132813 25.10929687 4.05765625 24.34359375 3.5078125 23.5546875 C0.32069069 18.15474536 -0.28060743 13.3014178 -0.125 7.125 C-0.11146484 6.09246094 -0.11146484 6.09246094 -0.09765625 5.0390625 C-0.07432513 3.35922162 -0.03846326 1.67956254 0 0 Z " fill="#F3DA4E" transform="translate(423,25)"/>
<path d="M0 0 C0.33 0 0.66 0 1 0 C1.3327958 3.66075376 1.46170299 5.39500988 -0.8125 8.375 C-3 10 -3 10 -6 10 C-6 10.66 -6 11.32 -6 12 C-5.01 12 -4.02 12 -3 12 C-3 12.66 -3 13.32 -3 14 C-5.64 13.34 -8.28 12.68 -11 12 C-11 11.34 -11 10.68 -11 10 C-10.0925 9.608125 -9.185 9.21625 -8.25 8.8125 C-4.26844818 6.59201918 -2.03069992 4.06139984 0 0 Z " fill="#F9DE37" transform="translate(121,37)"/>
<path d="M0 0 C1.98 0 3.96 0 6 0 C1.1857758 4.1010058 -3.46002057 4.15206908 -9.625 4.1875 C-10.75164063 4.20167969 -11.87828125 4.21585937 -13.0390625 4.23046875 C-16 4 -16 4 -19 2 C-12.73 2 -6.46 2 0 2 C0 1.34 0 0.68 0 0 Z " fill="#F6DC47" transform="translate(44,61)"/>
<path d="M0 0 C0.99 0.495 0.99 0.495 2 1 C3.9730998 6.91929941 4.47447567 10.27777501 2 16 C1.67 16 1.34 16 1 16 C-0.12862175 10.63904667 -0.09688221 5.44693314 0 0 Z " fill="#504D35" transform="translate(3,33)"/>
<path d="M0 0 C2.92509086 3.90012114 3.47535095 5.38308839 4 10 C2.35 11.32 0.7 12.64 -1 14 C-1 12.68 -1 11.36 -1 10 C-0.34 10 0.32 10 1 10 C0.67 6.7 0.34 3.4 0 0 Z " fill="#EBCA26" transform="translate(476,43)"/>
<path d="M0 0 C0.66 0 1.32 0 2 0 C2.33 1.32 2.66 2.64 3 4 C2.34 4 1.68 4 1 4 C1.1404983 6.7920301 1.28715383 9.58349796 1.4375 12.375 C1.47681641 13.1690625 1.51613281 13.963125 1.55664062 14.78125 C1.68893404 19.02601221 1.68893404 19.02601221 3 23 C2.01 23 1.02 23 0 23 C0 15.41 0 7.82 0 0 Z " fill="#F0D033" transform="translate(20,39)"/>
<path d="M0 0 C0.66 0.33 1.32 0.66 2 1 C1.28972656 1.62648438 0.57945313 2.25296875 -0.15234375 2.8984375 C-1.07144531 3.71570313 -1.99054687 4.53296875 -2.9375 5.375 C-4.31228516 6.59316406 -4.31228516 6.59316406 -5.71484375 7.8359375 C-8.03601395 9.78709347 -8.03601395 9.78709347 -9 12 C-9.66 12 -10.32 12 -11 12 C-11.33 12.99 -11.66 13.98 -12 15 C-12.33 14.34 -12.66 13.68 -13 13 C-9.2430054 7.45396035 -5.65370024 3.61836815 0 0 Z " fill="#1F1C16" transform="translate(20,5)"/>
<path d="M0 0 C1.051875 0.12375 2.10375 0.2475 3.1875 0.375 C3.1875 0.705 3.1875 1.035 3.1875 1.375 C2.07375 1.6225 0.96 1.87 -0.1875 2.125 C-3.81697546 2.98291033 -3.81697546 2.98291033 -5.1875 5.3125 C-5.39375 5.993125 -5.6 6.67375 -5.8125 7.375 C-6.1425 8.365 -6.4725 9.355 -6.8125 10.375 C-7.15477417 11.70606622 -7.49001743 13.03900079 -7.8125 14.375 C-9.33337936 7.58953822 -9.33337936 7.58953822 -8.01171875 4.5078125 C-5.56499206 1.1764387 -4.10402968 0.40367505 0 0 Z " fill="#F8E351" transform="translate(221.8125,1.625)"/>
<path d="M0 0 C1.65 0.33 3.3 0.66 5 1 C3.9802693 4.77300358 3.34127338 5.80206144 -0.125 7.8125 C-1.07375 8.204375 -2.0225 8.59625 -3 9 C-2.01 6.03 -1.02 3.06 0 0 Z " fill="#191205" transform="translate(247,37)"/>
<path d="M0 0 C0.66 0 1.32 0 2 0 C2.0270043 1.45823212 2.04639787 2.91660675 2.0625 4.375 C2.07410156 5.18710938 2.08570313 5.99921875 2.09765625 6.8359375 C2 9 2 9 1 11 C1.99 11.33 2.98 11.66 4 12 C-1.445 13.485 -1.445 13.485 -7 15 C-7 14.34 -7 13.68 -7 13 C-5.5459375 12.319375 -5.5459375 12.319375 -4.0625 11.625 C-0.92920418 10.34213779 -0.92920418 10.34213779 0 8 C0.0689472 6.62657169 0.08467708 5.24997898 0.0625 3.875 C0.041875 2.59625 0.02125 1.3175 0 0 Z " fill="#BFAE44" transform="translate(34,6)"/>
<path d="M0 0 C0.66 0 1.32 0 2 0 C2.69699552 1.45381897 3.38233866 2.91322953 4.0625 4.375 C4.63677734 5.59316406 4.63677734 5.59316406 5.22265625 6.8359375 C5.47917969 7.55007812 5.73570312 8.26421875 6 9 C5.67 9.66 5.34 10.32 5 11 C4.01 11.33 3.02 11.66 2 12 C1.34 8.04 0.68 4.08 0 0 Z " fill="#C5B958" transform="translate(467,25)"/>
<path d="M0 0 C0.66 0 1.32 0 2 0 C2 4.62 2 9.24 2 14 C1.34 14 0.68 14 0 14 C-0.1953125 11.94921875 -0.390625 9.8984375 -0.5859375 7.84765625 C-0.72257812 7.23792969 -0.85921875 6.62820312 -1 6 C-1.66 5.67 -2.32 5.34 -3 5 C-1.625 2.5 -1.625 2.5 0 0 Z " fill="#FBE057" transform="translate(439,26)"/>
<path d="M0 0 C0.99 0.33 1.98 0.66 3 1 C2.67 1.61875 2.34 2.2375 2 2.875 C0.59612316 7.26211512 0.84032477 11.43151427 1 16 C-2.15575457 12.19477615 -2.43640732 9.97504344 -2 5 C-1 2.0625 -1 2.0625 0 0 Z " fill="#F8DC49" transform="translate(301,24)"/>
<path d="M0 0 C0.66 0 1.32 0 2 0 C-0.89066059 10.55808656 -0.89066059 10.55808656 -4 15 C-5.25541557 11.23375329 -4.37061958 9.62811066 -3 6 C-2.34 6 -1.68 6 -1 6 C-0.67 4.02 -0.34 2.04 0 0 Z " fill="#F6DA4B" transform="translate(346,37)"/>
<path d="M0 0 C3.33773709 3.64116773 3.97864902 7.28607242 5 12 C4.01 11.67 3.02 11.34 2 11 C2 10.34 2 9.68 2 9 C1.01 8.67 0.02 8.34 -1 8 C-0.34 7.67 0.32 7.34 1 7 C0.67 4.69 0.34 2.38 0 0 Z " fill="#E3CA43" transform="translate(413,18)"/>
<path d="M0 0 C1.32 0 2.64 0 4 0 C4 0.66 4 1.32 4 2 C5.65 1.34 7.3 0.68 9 0 C9 0.66 9 1.32 9 2 C9.66 2.33 10.32 2.66 11 3 C10.34 3.66 9.68 4.32 9 5 C5.14901402 4.73441476 2.83304499 2.43956652 0 0 Z " fill="#E9CA1F" transform="translate(119,51)"/>
<path d="M0 0 C0 0.99 0 1.98 0 3 C-1 4 -1 4 -4.16015625 4.09765625 C-6.09181641 4.08025391 -6.09181641 4.08025391 -8.0625 4.0625 C-9.35285156 4.05347656 -10.64320313 4.04445313 -11.97265625 4.03515625 C-12.97167969 4.02355469 -13.97070312 4.01195312 -15 4 C-15 3.34 -15 2.68 -15 2 C-14.00419922 2.03480469 -14.00419922 2.03480469 -12.98828125 2.0703125 C-6.27138984 2.23624305 -6.27138984 2.23624305 0 0 Z " fill="#F9E047" transform="translate(463,45)"/>
<path d="M0 0 C3.60654039 2.40436026 3.85452932 3.94679607 5 8 C4.34 8 3.68 8 3 8 C2.67 10.31 2.34 12.62 2 15 C1.67 15 1.34 15 1 15 C0.67 10.05 0.34 5.1 0 0 Z " fill="#424033" transform="translate(484,23)"/>
<path d="M0 0 C0.66 0.33 1.32 0.66 2 1 C0.58832253 6.26170694 -1.74850232 9.72171358 -5 14 C-5.33 13.34 -5.66 12.68 -6 12 C-4.78515625 9.1796875 -4.78515625 9.1796875 -3.0625 5.875 C-2.49660156 4.77929688 -1.93070313 3.68359375 -1.34765625 2.5546875 C-0.90292969 1.71164063 -0.45820313 0.86859375 0 0 Z " fill="#2B270A" transform="translate(254,23)"/>
<path d="M0 0 C0.33 0 0.66 0 1 0 C1 1.65 1 3.3 1 5 C1.66 5.33 2.32 5.66 3 6 C1.35 7.98 -0.3 9.96 -2 12 C-3.15957207 8.52128379 -2.77456651 7.65780355 -1.5625 4.3125 C-1.13130859 3.10013672 -1.13130859 3.10013672 -0.69140625 1.86328125 C-0.46324219 1.24839844 -0.23507812 0.63351563 0 0 Z " fill="#E0CD49" transform="translate(356,20)"/>
<path d="M0 0 C0 3.48961209 -0.90379374 5.11480295 -2.5 8.1875 C-2.9640625 9.08855469 -3.428125 9.98960938 -3.90625 10.91796875 C-4.2671875 11.60503906 -4.628125 12.29210938 -5 13 C-5.66 13 -6.32 13 -7 13 C-5.58832253 7.73829306 -3.25149768 4.27828642 0 0 Z " fill="#F6DD41" transform="translate(431,11)"/>
<path d="M0 0 C0.33 0.66 0.66 1.32 1 2 C0.360625 2.12375 -0.27875 2.2475 -0.9375 2.375 C-1.618125 2.58125 -2.29875 2.7875 -3 3 C-3.33 3.66 -3.66 4.32 -4 5 C-6.31 4.01 -8.62 3.02 -11 2 C-11 1.67 -11 1.34 -11 1 C-7.26562152 0.12132271 -3.83225427 -0.08912219 0 0 Z " fill="#D9C745" transform="translate(37,1)"/>
<path d="M0 0 C1.98 0 3.96 0 6 0 C6.33 1.32 6.66 2.64 7 4 C7.99 4 8.98 4 10 4 C10 4.66 10 5.32 10 6 C5.56909529 4.79157144 3.01887244 3.48331435 0 0 Z " fill="#F7DB39" transform="translate(434,57)"/>
<path d="M0 0 C-0.62648438 0.26554687 -1.25296875 0.53109375 -1.8984375 0.8046875 C-2.71570313 1.15789063 -3.53296875 1.51109375 -4.375 1.875 C-5.18710938 2.22304688 -5.99921875 2.57109375 -6.8359375 2.9296875 C-9.13802299 3.92446067 -9.13802299 3.92446067 -11 6 C-11.99 5.01 -12.98 4.02 -14 3 C-12.23358317 2.3012307 -10.46167336 1.61633417 -8.6875 0.9375 C-7.20830078 0.36322266 -7.20830078 0.36322266 -5.69921875 -0.22265625 C-3 -1 -3 -1 0 0 Z " fill="#332406" transform="translate(106,49)"/>
<path d="M0 0 C2.97 0.495 2.97 0.495 6 1 C6 2.32 6 3.64 6 5 C6.66 5.66 7.32 6.32 8 7 C7.01 7 6.02 7 5 7 C0 1.53488372 0 1.53488372 0 0 Z " fill="#F2D531" transform="translate(79,49)"/>
<path d="M0 0 C0.66 0.33 1.32 0.66 2 1 C1.01 2.485 1.01 2.485 0 4 C-0.99 4 -1.98 4 -3 4 C-2.67 4.99 -2.34 5.98 -2 7 C-2.99 7.495 -2.99 7.495 -4 8 C-4.99 7.34 -5.98 6.68 -7 6 C-4.69 4.02 -2.38 2.04 0 0 Z " fill="#FAE141" transform="translate(368,6)"/>
<path d="M0 0 C1.45922693 0.11409593 2.91740598 0.24165544 4.375 0.375 C5.59316406 0.47941406 5.59316406 0.47941406 6.8359375 0.5859375 C9 1 9 1 11 3 C7.7 3 4.4 3 1 3 C0.67 2.01 0.34 1.02 0 0 Z " fill="#F8DB34" transform="translate(38,2)"/>
<path d="M0 0 C0.66 0 1.32 0 2 0 C2 0.66 2 1.32 2 2 C2.99 2 3.98 2 5 2 C5 4.64 5 7.28 5 10 C2.90217213 7.90217213 2.3490604 6.6200793 1.375 3.875 C1.11460937 3.15054688 0.85421875 2.42609375 0.5859375 1.6796875 C0.39257812 1.12539063 0.19921875 0.57109375 0 0 Z " fill="#C8AB47" transform="translate(234,52)"/>
<path d="M0 0 C-0.33 0.66 -0.66 1.32 -1 2 C-0.01 2 0.98 2 2 2 C2 2.66 2 3.32 2 4 C-0.64 3.34 -3.28 2.68 -6 2 C-6 1.34 -6 0.68 -6 0 C-3 -1 -3 -1 0 0 Z " fill="#DECA33" transform="translate(116,47)"/>
<path d="M0 0 C2.29633824 3.44450737 2.54016485 5.93812283 3 10 C2.01 10 1.02 10 0 10 C0 6.7 0 3.4 0 0 Z " fill="#F7D627" transform="translate(241,29)"/>
<path d="M0 0 C2.5 2.3125 2.5 2.3125 5 5 C5 5.99 5 6.98 5 8 C4.34 7.67 3.68 7.34 3 7 C3 6.34 3 5.68 3 5 C2.01 4.67 1.02 4.34 0 4 C0 2.68 0 1.36 0 0 Z " fill="#F5D83B" transform="translate(407,10)"/>
<path d="M0 0 C0.33 0.99 0.66 1.98 1 3 C-1.31 4.65 -3.62 6.3 -6 8 C-4.55746343 4.63408134 -2.66735273 2.48952921 0 0 Z " fill="#F5D03B" transform="translate(295,9)"/>
<path d="M0 0 C1.2065625 0.0309375 1.2065625 0.0309375 2.4375 0.0625 C-0.17764317 2.18288635 -2.75887616 4.19341744 -5.5625 6.0625 C-3.26136364 0.07954545 -3.26136364 0.07954545 0 0 Z " fill="#1D1301" transform="translate(153.5625,25.9375)"/>
<path d="M0 0 C2.76223278 2.76223278 2.57856291 5.20706617 3 9 C2.34 9 1.68 9 1 9 C-0.61949011 6.42786866 -1.04408751 5.32330841 -0.625 2.25 C-0.41875 1.5075 -0.2125 0.765 0 0 Z " fill="#E7D36B" transform="translate(208,21)"/>
<path d="M0 0 C3.37503669 1.1858237 5.64722731 2.27573689 8 5 C7.01 5.495 7.01 5.495 6 6 C5.01 5.67 4.02 5.34 3 5 C3 4.01 3 3.02 3 2 C2.01 2 1.02 2 0 2 C0 1.34 0 0.68 0 0 Z " fill="#F8DE48" transform="translate(193,5)"/>
<path d="M0 0 C1.27875 -0.061875 2.5575 -0.12375 3.875 -0.1875 C4.95394531 -0.23970703 4.95394531 -0.23970703 6.0546875 -0.29296875 C6.69664062 -0.19628906 7.33859375 -0.09960938 8 0 C8.66 0.99 9.32 1.98 10 3 C8.68 3.33 7.36 3.66 6 4 C6 3.01 6 2.02 6 1 C4.02 1 2.04 1 0 1 C0 0.67 0 0.34 0 0 Z " fill="#F8E04A" transform="translate(126,2)"/>
<path d="" fill="#FFFFFF" transform="translate(0,0)"/>
</svg>
